# xmcd
#
# Track frame offsets:
#	150
#	20740
#	35815
#	52812
#	69795
#	89262
#	107130
#	120240
#	136120
#	156297
#	176805
#	194532
#
# Disc length: 2777 seconds
#
# Revision: 0
# Processed by: cddbd v1.5.2PL0 Copyright (c) Steve Scherf et al.
# Submitted via: EZCDAudioConverter 7.0.0.1
#
DISCID=9d0ad70c
DTITLE=罗百吉 - 什么世界
DYEAR=1996
DGENRE=
TTITLE0=Friday night
TTITLE1=什么世界
TTITLE2=妈妈爸爸
TTITLE3=游游荡荡
TTITLE4=冻未着
TTITLE5=Bad Boyz
TTITLE6=气象报告先生的爱情
TTITLE7=快闪开
TTITLE8=放弃这一切
TTITLE9=Friday night(英)
TTITLE10=欧巴桑
TTITLE11=什么世界
EXTD=
EXTT0=
EXTT1=
EXTT2=
EXTT3=
EXTT4=
EXTT5=
EXTT6=
EXTT7=
EXTT8=
EXTT9=
EXTT10=
EXTT11=
PLAYORDER=
